<svg xmlns="http://www.w3.org/2000/svg" width="189" height="200"><defs><linearGradient id="a" x1="55.543%" x2="46.365%" y1="-9.844%" y2="70.333%"><stop stop-color="#FF9500" offset="0%"/><stop stop-color="#FFC500" offset="100%"/></linearGradient></defs><g fill="none" fill-rule="evenodd"><path fill="#8F949B" fill-opacity=".3" d="M94.25 182c40.014 0 72.499 1.568 72.499 3.5S134.264 189 94.25 189c-40.016 0-72.501-1.568-72.501-3.5S54.234 182 94.25 182z"/><path fill="#C9C9C4" d="M12.702 177.253c-.92-.008-1.602-.72-1.594-1.66l.164-82.655L90.54 28.241c.81-.699 1.847-1.043 2.995-1.033a4.946 4.946 0 012.864.966l79.029 64.987-.164 82.655c-.009.94-.705 1.758-1.624 1.75l-160.938-.313z"/><path fill="#CFCECA" d="M93.415 27.795c.92.008 1.836.251 2.52.845l78.801 64.75-.16 82.303c-.005.588-.47 1.054-1.045 1.167l-158.64-.294-2.183-.019a1.041 1.041 0 01-1.024-1.067l.16-82.302L90.88 28.714a3.963 3.963 0 012.535-.919zm.01-1.175c-1.263-.01-2.415.332-3.34 1.147L11.047 92.23l-.462.348-.006.589-.16 82.302a2.205 2.205 0 002.163 2.252l2.182.019 158.642.293c1.263.011 2.192-1.04 2.203-2.332l.16-82.302.006-.588-.457-.357-78.572-64.749c-.912-.713-2.058-1.075-3.321-1.086z"/><path stroke="#CFCECA" stroke-width="3.536" d="M93.415 27.795c.92.008 1.836.251 2.52.845l78.801 64.75-.16 82.303c-.005.588-.47 1.054-1.045 1.167l-158.64-.294-2.183-.019a1.041 1.041 0 01-1.024-1.067l.16-82.302L90.88 28.714a3.963 3.963 0 012.535-.919h0zm.01-1.175c-1.263-.01-2.415.332-3.34 1.147L11.047 92.23l-.462.348-.006.589-.16 82.302a2.205 2.205 0 002.163 2.252l2.182.019 158.642.293c1.263.011 2.192-1.04 2.203-2.332l.16-82.302.006-.588-.457-.357-78.572-64.749c-.912-.713-2.058-1.075-3.321-1.086z" stroke-linejoin="round"/><path fill="#FFF" d="M95.935 28.64c-1.368-1.188-3.665-1.207-5.054-.043l-79.152 64.58.026 9.995 163.007.213-.026-9.994-78.8-64.75z"/><path fill="#F4A000" d="M95.95 39.81c-1.368-1.188-3.665-1.207-5.054-.043l-75.449 61.555-1.183 29.619 157.145.516-1.334-30.699L95.95 39.81z"/><path fill="url(#a)" d="M26.378 43.741l.31-.218c10.981-7.718 27.815-11.273 30.599-22.628C58.678 15.218 56.857 7.35 51.54 0c15.644 5.574 24.707 13.635 26.963 20.237 3.664 10.717-1.192 22.703 3.574 23.778 4.621 1.042 7.853-6.966 6.972-14.39 15.145 14.709 24.96 31.381 25.748 58.522.089 1.31.135 2.632.135 3.964 0 31.743-25.75 57.515-57.466 57.515S0 123.854 0 92.11c0-7.486 1.432-14.64 4.037-21.202a51.716 51.716 0 017.804-13.755A57.866 57.866 0 0126.378 43.74z" transform="rotate(1 146.794 663.443) translate(.061 .123) translate(24.982 .983)"/><path fill="#5B2A00" d="M61.291 97.997c10.277-.055 51.763 2.27 60.637 4.014 2.18.443 8.15 3.229 4.932 10.19-5.87 12.703-19.745 21.214-34.9 20.95-16.898-.296-31.386-11.483-35.827-26.772-1.53-5.267.64-8.358 5.158-8.382z"/><path fill="#CF4324" d="M85.352 127.962c-3.65-16.681 23.556-23.071 33.708-12.696-5.959 8.21-22.39 15.59-33.708 12.696z"/><path fill="#FF7B5F" d="M88.952 121.103c1.12-2.705 4.625-6.43 9.16-7.323 2.517-.496 2.817 2.242 1.524 2.717-1.293.475-6.488 4.493-8.357 6.812-1.87 2.32-3.326.205-2.327-2.206z"/><path fill="#FFF" d="M174.561 176.12c-.005.594-.47 1.065-1.046 1.18l-77.842-.064c-.576-.005-1.032-.484-1.142-1.08l.09-48.376c.006-.594.472-1.303 1.05-1.536l79.178-33.207-.288 83.083zm-83.253-.11c-.005.595-.47 1.067-1.047 1.18l-77.841-.063c-.576-.004-1.032-.484-1.142-1.079l.173-83.203L90.49 126.32c.574.243 1.027.96 1.022 1.554l-.203 48.138z"/><path fill="#EAE8E4" d="M91.308 176.01l.09-48.376c.005-.594-.449-1.31-1.022-1.553l-4.475-1.821-72.081 50.859c-1.507 1.057-1.284 1.89.558 1.906l75.768.164c.577-.113 1.157-.584 1.162-1.178zm80.612-.745l-71.855-51.004-4.392 1.864c-.579.233-1.045.942-1.05 1.537l-.09 48.376c-.006.594.45 1.074 1.141 1.08l75.768.164c1.728-.104 1.965-.935.478-2.017z"/><path fill="#FFF" d="M171.92 175.384c1.487 1.082 1.249 1.912-.594 1.897l-156.832-.255c-1.843-.016-2.066-.85-.56-1.906l76.357-52.368c1.506-1.057 3.924-1.037 5.411.045l76.218 52.587z"/><path fill="#663000" d="M79.424 88.74c.582-7.171-.766-24.463-12.734-24.56-10.48-.086-12.402 19.212-12.548 23.379-.033.933.616 2.324 1.535 2.532.92.208 2.327-.15 2.483-1.448.266-2.205 2.851-18.56 8.497-18.577 9.128-.028 8.454 16.61 8.39 19.13-.062 2.52 4.07 3.317 4.377-.456zm51.263-.161c.643-4.53-.521-23.067-12.864-23.51-11.49-.414-14.072 17.483-14.339 22.514-.233 4.401 4.28 5.49 4.803 1.918.495-3.376 2.303-19.266 9.935-18.14 5.582.824 8.187 8.817 8.252 17.155.024 3.15 3.598 4.4 4.213.063z"/><path fill="#B55500" d="M112.39 50.454c6.438-4.501 13.093-1.653 16.227 3.444.373.606.646 1.658.265 2.141-.417.53-1.534.443-2.083-.096-1.772-1.738-6.216-5.613-13.135-2.299-.741.355-1.966.189-2.289-.556-.326-.752-.18-1.799 1.015-2.634zm-35.577-.911c-4.3-3.126-11.712-2.771-15.501 2.484-.257.357-.77 1.24-.659 1.855.137.75.925 1.163 1.57.643 3.24-2.612 7.985-4.746 13.74-1.423.952.55 2.307-.154 2.388-1.13.081-.975-.828-1.913-1.538-2.43z"/></g></svg>